<svg width="35" height="32" viewBox="0 0 35 32" fill="none" xmlns="http://www.w3.org/2000/svg">
<path d="M15.7729 0.00177226C16.4059 0.000566204 17.0413 -0.0100373 17.6733 0.0330223C21.9357 0.30673 25.9443 1.92946 28.9643 4.60333C30.7402 6.1583 32.109 8.03846 32.976 10.1111C33.0302 10.2389 33.1441 10.4886 33.2319 10.7117C33.6529 11.7379 34.1747 13.6216 34.0454 14.7801C33.2575 14.5975 32.6092 13.6391 32.3833 13.1824L32.9458 10.8074C32.84 10.6256 32.7296 10.447 32.6235 10.2791C31.4363 8.36245 29.6448 6.79207 27.4673 5.75861C25.9405 5.01652 24.0674 4.53714 22.3266 4.44904C21.2796 4.39606 20.2167 4.45023 19.1694 4.47052C18.944 4.47488 17.6122 4.45582 17.5288 4.47736L17.5669 4.50666C16.4835 4.42763 15.3905 4.45216 14.3042 4.45392C13.3999 4.45539 12.4888 4.43275 11.5854 4.46466C11.5904 5.01166 11.5921 5.55925 11.5903 6.10626C11.5902 6.45283 11.6006 6.80225 11.5776 7.14826C10.1864 7.11467 8.89283 6.62469 7.93503 5.73126C6.0849 4.00537 6.64235 2.14704 6.55026 0.00372538L13.3569 0.00567851L15.7729 0.00177226Z" fill="url(#paint0_linear_1145_3741)"/>
<path d="M0.00717715 8.45901L11.4953 8.45648L14.8357 8.45534C15.9761 8.45502 17.1191 8.40783 18.2389 8.63926C19.7492 8.96414 21.1279 9.65354 22.2213 10.6306C23.7189 11.9555 24.5629 13.7506 24.5689 15.6239C24.5506 17.5339 23.6763 19.3596 22.1378 20.7004C21.0996 21.6001 19.8072 22.2367 18.3956 22.5436C17.0924 22.8152 15.7794 22.7628 14.4518 22.7609L10.8297 22.7588L4.04739 22.759C2.88835 22.759 1.72652 22.7746 0.567727 22.7594C0.541745 22.7591 0.515774 22.7582 0.489835 22.7568L0.0146733 22.7611L0.0068381 21.4215C0.00526134 21.0646 -0.00825098 20.6987 0.045844 20.3443C0.123809 19.8336 0.390403 19.1364 0.782337 18.7476C1.32719 18.0052 2.31187 17.4455 3.28213 17.2659C3.85954 17.1591 4.45463 17.1805 5.04119 17.1798C5.04366 17.552 5.03723 17.9266 5.05121 18.2986C7.69897 18.3312 10.3499 18.3084 12.998 18.3072L15.2604 18.3064C15.8172 18.3062 16.4135 18.3354 16.9627 18.245C17.5689 18.1451 18.1244 17.915 18.5702 17.5346C18.8647 17.2829 19.1002 16.9823 19.263 16.65C19.4259 16.3178 19.513 15.9603 19.5194 15.5982C19.526 14.9162 19.1677 14.2002 18.6255 13.7214C18.1861 13.3332 17.6255 13.07 17.0158 12.9655C16.5149 12.8773 15.9652 12.9004 15.4547 12.8983L13.3647 12.8964L6.15484 12.8992C5.7835 12.9012 5.41217 12.9055 5.0409 12.9121C5.03888 13.285 5.04638 13.6606 5.03311 14.0332C3.53058 14.029 2.32278 13.8959 1.19664 12.886C0.580365 12.3334 0.145083 11.58 0.0372574 10.806C-0.0124712 10.449 0.00159836 10.084 0.00254441 9.72476L0.00717715 8.45901Z" fill="url(#paint1_linear_1145_3741)"/>
<path d="M17.5641 4.50699L17.5263 4.47769C17.6098 4.45615 18.9413 4.47482 19.1666 4.47046C20.2141 4.45017 21.2771 4.39646 22.3243 4.44946C24.065 4.53756 25.9377 5.01651 27.4645 5.75859C29.6422 6.79207 31.4335 8.36263 32.6208 10.2794C32.8786 10.6874 33.1755 11.1502 33.3172 11.6022C33.3254 11.629 33.3271 11.6494 33.3233 11.6768C33.4746 11.8402 33.3504 12.186 33.5513 12.3257C33.7779 12.5632 34.083 14.7626 34.0966 15.1336C34.2151 18.4461 33.1316 21.7052 31.0047 24.4339C30.545 25.0262 30.0455 25.603 29.4886 26.1264C26.5211 28.9143 22.7871 30.6745 18.4629 31.1132C17.1147 31.2498 15.7594 31.2138 14.4048 31.2134L9.13423 31.2147C8.27977 31.2147 7.42007 31.1883 6.56649 31.211C6.57481 30.5096 6.54216 29.8077 6.54298 29.1058C6.54451 27.7901 6.66842 26.8527 7.61991 25.7814C8.22757 25.0972 9.16225 24.5174 10.11 24.276C10.5901 24.1535 11.0827 24.1027 11.5772 24.0495C11.6011 24.9483 11.57 25.8529 11.5712 26.7525L11.5927 26.7531C12.48 26.7755 13.3739 26.7549 14.262 26.757C15.3169 26.7596 16.3816 26.7789 17.4324 26.6912C20.2983 26.4516 22.9867 25.4256 25.0775 23.6638C25.5389 23.2749 25.9901 22.8676 26.3877 22.4266C28.0711 20.53 29.0129 18.2015 29.0718 15.7911C29.1266 12.8764 27.8864 10.059 25.6178 7.944C23.9276 6.37291 21.7625 5.2645 19.3801 4.75078C18.7947 4.62523 18.1674 4.51924 17.5641 4.50699Z" fill="url(#paint2_linear_1145_3741)"/>
<path d="M34.1067 15.1791C33.9835 12.5542 33.1626 11.2227 32.6906 10.3857L32.3828 11.0134C32.7727 11.7363 33.6634 13.7639 34.1067 15.1791Z" fill="#0FD1D2"/>
<defs>
<linearGradient id="paint0_linear_1145_3741" x1="-4.1887" y1="-24.6544" x2="34.115" y2="11.2527" gradientUnits="userSpaceOnUse">
<stop stop-color="#0FDDCC"/>
<stop offset="1" stop-color="#008CA4"/>
</linearGradient>
<linearGradient id="paint1_linear_1145_3741" x1="10.2806" y1="24.0269" x2="12.4279" y2="7.87582" gradientUnits="userSpaceOnUse">
<stop stop-color="#3C3F42"/>
<stop offset="1" stop-color="#5A5E61"/>
</linearGradient>
<linearGradient id="paint2_linear_1145_3741" x1="27.9314" y1="4.42676" x2="36.9036" y2="69.8035" gradientUnits="userSpaceOnUse">
<stop stop-color="#0FDDCC"/>
<stop offset="1" stop-color="#0FBBDD"/>
</linearGradient>
</defs>
</svg>
